{
  "source": "C:\\Users\\Peter\\Desktop\\stuff\\MIUN\\quantitative_research\\video_compression\\videos\\BVI-HD\\BVI-HD_CDVL_videos\\ORIG\\KineticFastPainting_1920x1080_60fps.mp4",
  "output": "C:\\Users\\Peter\\Desktop\\stuff\\MIUN\\quantitative_research\\video_compression\\compressed_videos\\BVI-HD\\vp9\\8\\KineticFastPainting_1920x1080_60fps_vp9.webm",
  "codec": "vp9",
  "ok": "Input #0, mov,mp4,m4a,3gp,3g2,mj2, from 'C:\\Users\\Peter\\Desktop\\stuff\\MIUN\\quantitative_research\\video_compression\\videos\\BVI-HD\\BVI-HD_CDVL_videos\\ORIG\\KineticFastPainting_1920x1080_60fps.mp4':\n  Metadata:\n    major_brand     : isom\n    minor_version   : 512\n    compatible_brands: isomiso2avc1mp41\n    encoder         : Lavf54.28.101\n  Duration: 00:00:05.00, start: 0.000000, bitrate: 477980 kb/s\n  Stream #0:0[0x1](und): Video: h264 (High 4:4:4 Predictive) (avc1 / 0x31637661), yuv420p(progressive), 1920x1080, 477974 kb/s, 60 fps, 60 tbr, 60 tbn (default)\n    Metadata:\n      handler_name    : VideoHandler\n      vendor_id       : [0][0][0][0]\n[out#0/webm @ 000002156eca9100] Codec AVOption b:a (set bitrate (in bits/s)) has not been used for any stream. The most likely reason is either wrong type (e.g. a video option with no video streams) or that it is a private option of some decoder which was not actually used for any stream.\nStream mapping:\n  Stream #0:0 -> #0:0 (h264 (native) -> vp9 (libvpx-vp9))\nPress [q] to stop, [?] for help\n[libvpx-vp9 @ 000002156f7a00c0] v1.15.2-100-g40561f514\nOutput #0, webm, to 'C:\\Users\\Peter\\Desktop\\stuff\\MIUN\\quantitative_research\\video_compression\\compressed_videos\\BVI-HD\\vp9\\8\\KineticFastPainting_1920x1080_60fps_vp9.webm':\n  Metadata:\n    major_brand     : isom\n    minor_version   : 512\n    compatible_brands: isomiso2avc1mp41\n    encoder         : Lavf62.3.100\n  Stream #0:0(und): Video: vp9, yuv420p(tv, progressive), 1920x1080, q=2-31, 8000 kb/s, 60 fps, 1k tbn (default)\n    Metadata:\n      encoder         : Lavc62.11.100 libvpx-vp9\n      handler_name    : VideoHandler\n      vendor_id       : [0][0][0][0]\n    Side data:\n      cpb: bitrate max/min/avg: 0/0/0 buffer size: 8000000 vbv_delay: N/A\nframe=    0 fps=0.0 q=0.0 size=       0KiB time=N/A bitrate=N/A speed=N/A elapsed=0:00:00.53    \nframe=    4 fps=3.6 q=50.0 size=       1KiB time=00:00:00.06 bitrate=  76.0kbits/s speed=0.0596x elapsed=0:00:01.11    \nframe=    8 fps=4.9 q=50.0 size=       1KiB time=00:00:00.13 bitrate=  38.0kbits/s speed=0.0815x elapsed=0:00:01.63    \nframe=   12 fps=5.5 q=49.0 size=       1KiB time=00:00:00.20 bitrate=  25.3kbits/s speed=0.0919x elapsed=0:00:02.17    \nframe=   17 fps=6.2 q=48.0 size=       1KiB time=00:00:00.28 bitrate=  17.9kbits/s speed=0.104x elapsed=0:00:02.72    \nframe=   20 fps=6.2 q=48.0 size=       1KiB time=00:00:00.33 bitrate=  15.2kbits/s speed=0.103x elapsed=0:00:03.24    \nframe=   24 fps=6.4 q=48.0 size=       1KiB time=00:00:00.40 bitrate=  12.7kbits/s speed=0.106x elapsed=0:00:03.76    \nframe=   28 fps=6.5 q=47.0 size=       1KiB time=00:00:00.46 bitrate=  10.9kbits/s speed=0.108x elapsed=0:00:04.30    \nframe=   32 fps=6.6 q=47.0 size=       1KiB time=00:00:00.53 bitrate=   9.5kbits/s speed=0.111x elapsed=0:00:04.81    \nframe=   36 fps=6.7 q=47.0 size=       1KiB time=00:00:00.60 bitrate=   8.4kbits/s speed=0.112x elapsed=0:00:05.34    \nframe=   39 fps=6.6 q=46.0 size=       1KiB time=00:00:00.65 bitrate=   7.8kbits/s speed=0.111x elapsed=0:00:05.86    \nframe=   43 fps=6.7 q=35.0 size=       1KiB time=00:00:00.71 bitrate=   7.1kbits/s speed=0.112x elapsed=0:00:06.39    \nframe=   46 fps=6.7 q=47.0 size=       1KiB time=00:00:00.76 bitrate=   6.6kbits/s speed=0.111x elapsed=0:00:06.91    \nframe=   50 fps=6.7 q=49.0 size=       1KiB time=00:00:00.83 bitrate=   6.1kbits/s speed=0.112x elapsed=0:00:07.44    \nframe=   53 fps=6.6 q=49.0 size=       1KiB time=00:00:00.88 bitrate=   5.7kbits/s speed=0.111x elapsed=0:00:07.98    \nframe=   57 fps=6.7 q=48.0 size=       1KiB time=00:00:00.95 bitrate=   5.3kbits/s speed=0.112x elapsed=0:00:08.50    \nframe=   60 fps=6.6 q=48.0 size=       1KiB time=00:00:01.00 bitrate=   5.1kbits/s speed=0.111x elapsed=0:00:09.04    \nframe=   64 fps=6.7 q=46.0 size=       1KiB time=00:00:01.06 bitrate=   4.7kbits/s speed=0.112x elapsed=0:00:09.55    \nframe=   68 fps=6.8 q=46.0 size=       1KiB time=00:00:01.13 bitrate=   4.5kbits/s speed=0.113x elapsed=0:00:10.07    \nframe=   72 fps=6.8 q=47.0 size=       1KiB time=00:00:01.20 bitrate=   4.2kbits/s speed=0.113x elapsed=0:00:10.58    \nframe=   75 fps=6.8 q=47.0 size=       1KiB time=00:00:01.25 bitrate=   4.1kbits/s speed=0.113x elapsed=0:00:11.10    \nframe=   78 fps=6.7 q=48.0 size=       1KiB time=00:00:01.30 bitrate=   3.9kbits/s speed=0.112x elapsed=0:00:11.61    \nframe=   83 fps=6.8 q=48.0 size=       1KiB time=00:00:01.38 bitrate=   3.7kbits/s speed=0.114x elapsed=0:00:12.13    \nframe=   86 fps=6.8 q=48.0 size=       1KiB time=00:00:01.43 bitrate=   3.5kbits/s speed=0.113x elapsed=0:00:12.66    \nframe=   90 fps=6.8 q=48.0 size=       1KiB time=00:00:01.50 bitrate=   3.4kbits/s speed=0.114x elapsed=0:00:13.17    \nframe=   93 fps=6.8 q=47.0 size=       1KiB time=00:00:01.55 bitrate=   3.3kbits/s speed=0.113x elapsed=0:00:13.69    \nframe=   96 fps=6.8 q=48.0 size=       1KiB time=00:00:01.60 bitrate=   3.2kbits/s speed=0.113x elapsed=0:00:14.21    \nframe=  100 fps=6.8 q=48.0 size=       1KiB time=00:00:01.66 bitrate=   3.0kbits/s speed=0.113x elapsed=0:00:14.73    \nframe=  104 fps=6.8 q=48.0 size=       1KiB time=00:00:01.73 bitrate=   2.9kbits/s speed=0.113x elapsed=0:00:15.28    \nframe=  108 fps=6.8 q=47.0 size=       1KiB time=00:00:01.80 bitrate=   2.8kbits/s speed=0.114x elapsed=0:00:15.81    \nframe=  111 fps=6.8 q=47.0 size=       1KiB time=00:00:01.85 bitrate=   2.7kbits/s speed=0.113x elapsed=0:00:16.35    \nframe=  115 fps=6.8 q=35.0 size=       1KiB time=00:00:01.91 bitrate=   2.6kbits/s speed=0.114x elapsed=0:00:16.86    \nframe=  119 fps=6.8 q=46.0 size=       1KiB time=00:00:01.98 bitrate=   2.6kbits/s speed=0.114x elapsed=0:00:17.39    \nframe=  123 fps=6.9 q=43.0 size=       1KiB time=00:00:02.05 bitrate=   2.5kbits/s speed=0.114x elapsed=0:00:17.91    \nframe=  127 fps=6.9 q=44.0 size=       1KiB time=00:00:02.11 bitrate=   2.4kbits/s speed=0.115x elapsed=0:00:18.45    \nframe=  131 fps=6.9 q=45.0 size=    1792KiB time=00:00:02.18 bitrate=6723.7kbits/s speed=0.115x elapsed=0:00:18.98    \nframe=  135 fps=6.9 q=34.0 size=    1792KiB time=00:00:02.25 bitrate=6524.5kbits/s speed=0.115x elapsed=0:00:19.50    \nframe=  138 fps=6.9 q=47.0 size=    1792KiB time=00:00:02.30 bitrate=6382.6kbits/s speed=0.115x elapsed=0:00:20.02    \nframe=  142 fps=6.9 q=49.0 size=    1792KiB time=00:00:02.36 bitrate=6202.8kbits/s speed=0.115x elapsed=0:00:20.55    \nframe=  146 fps=6.9 q=49.0 size=    1792KiB time=00:00:02.43 bitrate=6032.9kbits/s speed=0.115x elapsed=0:00:21.10    \nframe=  149 fps=6.9 q=48.0 size=    1792KiB time=00:00:02.48 bitrate=5911.4kbits/s speed=0.115x elapsed=0:00:21.62    \nframe=  152 fps=6.9 q=49.0 size=    1792KiB time=00:00:02.53 bitrate=5794.8kbits/s speed=0.114x elapsed=0:00:22.14    \nframe=  156 fps=6.9 q=48.0 size=    1792KiB time=00:00:02.60 bitrate=5646.2kbits/s speed=0.115x elapsed=0:00:22.67    \nframe=  160 fps=6.9 q=48.0 size=    1792KiB time=00:00:02.66 bitrate=5505.0kbits/s speed=0.115x elapsed=0:00:23.19    \nframe=  164 fps=6.9 q=47.0 size=    1792KiB time=00:00:02.73 bitrate=5370.8kbits/s speed=0.115x elapsed=0:00:23.72    \nframe=  167 fps=6.9 q=46.0 size=    1792KiB time=00:00:02.78 bitrate=5274.3kbits/s speed=0.115x elapsed=0:00:24.26    \nframe=  171 fps=6.9 q=34.0 size=    1792KiB time=00:00:02.83 bitrate=5181.2kbits/s speed=0.114x elapsed=0:00:24.77    \nframe=  175 fps=6.9 q=47.0 size=    1792KiB time=00:00:02.91 bitrate=5033.2kbits/s speed=0.115x elapsed=0:00:25.29    \nframe=  178 fps=6.9 q=48.0 size=    1792KiB time=00:00:02.96 bitrate=4948.3kbits/s speed=0.115x elapsed=0:00:25.82    \nframe=  182 fps=6.9 q=47.0 size=    1792KiB time=00:00:03.03 bitrate=4839.6kbits/s speed=0.115x elapsed=0:00:26.34    \nframe=  186 fps=6.9 q=46.0 size=    1792KiB time=00:00:03.10 bitrate=4735.5kbits/s speed=0.115x elapsed=0:00:26.87    \nframe=  190 fps=6.9 q=47.0 size=    1792KiB time=00:00:03.16 bitrate=4635.8kbits/s speed=0.116x elapsed=0:00:27.40    \nframe=  194 fps=6.9 q=47.0 size=    1792KiB time=00:00:03.23 bitrate=4540.2kbits/s speed=0.116x elapsed=0:00:27.94    \nframe=  197 fps=6.9 q=46.0 size=    1792KiB time=00:00:03.28 bitrate=4471.1kbits/s speed=0.115x elapsed=0:00:28.48    \nframe=  200 fps=6.9 q=48.0 size=    1792KiB time=00:00:03.33 bitrate=4404.0kbits/s speed=0.115x elapsed=0:00:28.99    \nframe=  204 fps=6.9 q=48.0 size=    1792KiB time=00:00:03.40 bitrate=4317.7kbits/s speed=0.115x elapsed=0:00:29.51    \nframe=  208 fps=6.9 q=48.0 size=    1792KiB time=00:00:03.46 bitrate=4234.6kbits/s speed=0.115x elapsed=0:00:30.03    \nframe=  212 fps=6.9 q=47.0 size=    1792KiB time=00:00:03.53 bitrate=4154.7kbits/s speed=0.116x elapsed=0:00:30.57    \nframe=  215 fps=6.9 q=46.0 size=    1792KiB time=00:00:03.58 bitrate=4096.8kbits/s speed=0.115x elapsed=0:00:31.10    \nframe=  219 fps=6.9 q=34.0 size=    1792KiB time=00:00:03.65 bitrate=4021.9kbits/s speed=0.115x elapsed=0:00:31.62    \nframe=  223 fps=6.9 q=45.0 size=    1792KiB time=00:00:03.71 bitrate=3949.8kbits/s speed=0.116x elapsed=0:00:32.14    \nframe=  227 fps=6.9 q=45.0 size=    1792KiB time=00:00:03.78 bitrate=3880.2kbits/s speed=0.116x elapsed=0:00:32.66    \nframe=  230 fps=6.9 q=46.0 size=    1792KiB time=00:00:03.83 bitrate=3829.6kbits/s speed=0.115x elapsed=0:00:33.19    \nframe=  234 fps=6.9 q=46.0 size=    1792KiB time=00:00:03.90 bitrate=3764.1kbits/s speed=0.116x elapsed=0:00:33.73    \nframe=  237 fps=6.9 q=34.0 size=    1792KiB time=00:00:03.95 bitrate=3716.5kbits/s speed=0.115x elapsed=0:00:34.25    \nframe=  241 fps=6.9 q=47.0 size=    1792KiB time=00:00:04.01 bitrate=3654.8kbits/s speed=0.115x elapsed=0:00:34.78    \nframe=  244 fps=6.9 q=48.0 size=    1792KiB time=00:00:04.06 bitrate=3609.9kbits/s speed=0.115x elapsed=0:00:35.30    \nframe=  248 fps=6.9 q=48.0 size=    1792KiB time=00:00:04.13 bitrate=3551.6kbits/s speed=0.115x elapsed=0:00:35.82    \nframe=  252 fps=6.9 q=47.0 size=    1792KiB time=00:00:04.20 bitrate=3495.3kbits/s speed=0.116x elapsed=0:00:36.36    \nframe=  256 fps=6.9 q=48.0 size=    1792KiB time=00:00:04.26 bitrate=3440.6kbits/s speed=0.116x elapsed=0:00:36.88    \nframe=  260 fps=6.9 q=48.0 size=    3840KiB time=00:00:04.33 bitrate=7259.4kbits/s speed=0.116x elapsed=0:00:37.42    \nframe=  264 fps=7.0 q=49.0 size=    3840KiB time=00:00:04.40 bitrate=7149.4kbits/s speed=0.116x elapsed=0:00:37.93    \nframe=  268 fps=7.0 q=48.0 size=    3840KiB time=00:00:04.46 bitrate=7042.7kbits/s speed=0.116x elapsed=0:00:38.44    \nframe=  272 fps=7.0 q=47.0 size=    3840KiB time=00:00:04.53 bitrate=6939.1kbits/s speed=0.116x elapsed=0:00:38.98    \nframe=  276 fps=7.0 q=47.0 size=    3840KiB time=00:00:04.60 bitrate=6838.5kbits/s speed=0.116x elapsed=0:00:39.51    \nframe=  276 fps=6.9 q=47.0 size=    3840KiB time=00:00:04.60 bitrate=6838.5kbits/s speed=0.115x elapsed=0:00:40.06    \nframe=  276 fps=6.8 q=47.0 size=    3840KiB time=00:00:04.60 bitrate=6838.5kbits/s speed=0.113x elapsed=0:00:40.60    \nframe=  276 fps=6.7 q=47.0 size=    3840KiB time=00:00:04.60 bitrate=6838.5kbits/s speed=0.112x elapsed=0:00:41.14    \nframe=  276 fps=6.6 q=47.0 size=    3840KiB time=00:00:04.60 bitrate=6838.5kbits/s speed=0.11x elapsed=0:00:41.66    \nframe=  276 fps=6.5 q=47.0 size=    3840KiB time=00:00:04.60 bitrate=6838.5kbits/s speed=0.109x elapsed=0:00:42.20    \nframe=  276 fps=6.5 q=47.0 size=    3840KiB time=00:00:04.60 bitrate=6838.5kbits/s speed=0.108x elapsed=0:00:42.71    \n[out#0/webm @ 000002156eca9100] video:4644KiB audio:0KiB subtitle:0KiB other streams:0KiB global headers:0KiB muxing overhead: 0.060417%\nframe=  300 fps=7.0 q=48.0 Lsize=    4647KiB time=00:00:05.00 bitrate=7613.1kbits/s speed=0.117x elapsed=0:00:42.87    \n",
  "seconds": 43.10855579376221,
  "probe_out": {}
}